<?xml version="1.0" encoding="UTF-8"?>
<svg width="38px" height="48px" viewBox="0 0 38 48" version="1.1" xmlns="http://www.w3.org/2000/svg" xmlns:xlink="http://www.w3.org/1999/xlink">
    <!-- Generator: Sketch 43.1 (39012) - http://www.bohemiancoding.com/sketch -->
    <title>Group</title>
    <desc>Created with Sketch.</desc>
    <defs></defs>
    <g id="Page-1" stroke="none" stroke-width="1" fill="none" fill-rule="evenodd">
        <g id="Group" fill-rule="nonzero" fill="#555555">
            <path d="M36.042,12.723 C35.918,12.74 35.795,12.76 35.659,12.76 C35.57,12.76 35.492,12.742 35.408,12.735 L35.408,43.594 C35.408,44.696 34.512,45.594 33.408,45.594 L4.575,45.594 C3.472,45.594 2.575,44.696 2.575,43.594 L2.575,4.426 C2.575,3.323 3.472,2.426 4.575,2.426 L27.094,2.426 C26.441,1.972 26.103,1.207 26.08,0.426 L4.575,0.426 C2.37,0.426 0.575,2.22 0.575,4.426 L0.575,43.593 C0.575,45.798 2.37,47.593 4.575,47.593 L33.408,47.593 C35.615,47.593 37.408,45.798 37.408,43.593 L37.408,13.503 C36.817,13.401 36.362,13.115 36.042,12.723 Z" id="Shape"></path>
            <path d="M36.407,14.531 C36.403,14.531 36.395,14.532 36.386,14.531 L26.21,14.531 C25.647,14.531 25.192,14.083 25.192,13.531 L25.192,1.407 C25.192,0.985 25.462,0.609 25.866,0.466 C26.268,0.322 26.721,0.445 26.995,0.771 L37.067,12.77 C37.287,12.954 37.424,13.227 37.424,13.532 C37.425,14.083 36.97,14.531 36.407,14.531 Z M27.228,12.531 L34.229,12.531 L27.228,4.191 L27.228,12.531 Z" id="Shape"></path>
            <path d="M28.213,31.635 L9.771,31.635 C7.565,31.635 5.771,29.841 5.771,27.635 L5.771,22.26 C5.771,20.054 7.565,18.26 9.771,18.26 L28.212,18.26 C30.418,18.26 32.212,20.054 32.212,22.26 L32.212,27.635 C32.213,29.841 30.419,31.635 28.213,31.635 Z M9.771,20.26 C8.668,20.26 7.771,21.157 7.771,22.26 L7.771,27.635 C7.771,28.738 8.668,29.635 9.771,29.635 L28.212,29.635 C29.315,29.635 30.212,28.738 30.212,27.635 L30.212,22.26 C30.212,21.157 29.315,20.26 28.212,20.26 L9.771,20.26 Z" id="Shape"></path>
            <path d="M12.908,21.669 C13.37,21.669 13.766,21.724 14.098,21.834 C14.429,21.943 14.702,22.094 14.916,22.286 C15.131,22.478 15.289,22.704 15.392,22.965 C15.494,23.226 15.544,23.508 15.544,23.811 C15.544,24.138 15.491,24.438 15.387,24.711 C15.282,24.984 15.121,25.219 14.906,25.413 C14.691,25.607 14.416,25.76 14.085,25.869 C13.754,25.979 13.361,26.034 12.908,26.034 L12.116,26.034 L12.116,28.225 L10.595,28.225 L10.595,21.668 L12.908,21.668 L12.908,21.669 Z M12.908,24.887 C13.304,24.887 13.589,24.792 13.763,24.604 C13.937,24.415 14.024,24.15 14.024,23.812 C14.024,23.662 14.002,23.525 13.957,23.402 C13.912,23.279 13.844,23.173 13.752,23.085 C13.66,22.997 13.545,22.928 13.405,22.88 C13.265,22.832 13.1,22.808 12.908,22.808 L12.116,22.808 L12.116,24.887 L12.908,24.887 Z" id="Shape"></path>
            <path d="M22.269,24.945 C22.269,25.419 22.187,25.856 22.023,26.257 C21.86,26.657 21.629,27.004 21.333,27.297 C21.036,27.589 20.679,27.817 20.26,27.981 C19.841,28.145 19.377,28.226 18.867,28.226 L16.319,28.226 L16.319,21.669 L18.867,21.669 C19.377,21.669 19.841,21.752 20.26,21.917 C20.679,22.082 21.036,22.31 21.333,22.601 C21.63,22.892 21.86,23.238 22.023,23.638 C22.187,24.039 22.269,24.474 22.269,24.945 Z M20.711,24.945 C20.711,24.621 20.669,24.328 20.585,24.067 C20.501,23.806 20.38,23.585 20.223,23.403 C20.066,23.221 19.872,23.082 19.645,22.985 C19.418,22.888 19.158,22.839 18.867,22.839 L17.849,22.839 L17.849,27.056 L18.867,27.056 C19.158,27.056 19.418,27.007 19.645,26.91 C19.873,26.813 20.066,26.673 20.223,26.491 C20.38,26.31 20.501,26.089 20.585,25.828 C20.669,25.567 20.711,25.271 20.711,24.945 Z" id="Shape"></path>
            <polygon id="Shape" points="24.698 22.839 24.698 24.5 26.939 24.5 26.939 25.674 24.698 25.674 24.698 28.226 23.169 28.226 23.169 21.669 27.39 21.669 27.39 22.839"></polygon>
        </g>
    </g>
</svg>